<svg width="303" height="46" viewBox="0 0 303 46" fill="none" xmlns="http://www.w3.org/2000/svg">
<g clip-path="url(#clip0_6_3)">
<path d="M24.6309 32.6113C23.6934 31.1348 22.7734 29.4824 21.8711 27.6543C20.9805 25.8145 20.1719 23.9277 19.4453 21.9941C18.7188 20.0488 18.1387 18.1797 17.7051 16.3867C17.2715 14.582 17.0547 12.9707 17.0547 11.5527C17.0547 11.248 17.1191 11.0078 17.248 10.832C17.5176 10.457 17.8457 10.0703 18.2324 9.67188C18.6309 9.26172 19.0996 8.83398 19.6387 8.38867C19.8145 8.24805 19.9785 8.17773 20.1309 8.17773C20.2832 8.17773 20.4355 8.24805 20.5879 8.38867C21.1387 8.83398 21.6074 9.26172 21.9941 9.67188C22.3809 10.0703 22.709 10.457 22.9785 10.832C23.1074 11.0078 23.1719 11.2656 23.1719 11.6055V11.5352C23.1719 12.5312 23.3066 13.7324 23.5762 15.1387C23.8574 16.5332 24.2383 18.0039 24.7188 19.5508C25.2109 21.0859 25.7676 22.5801 26.3887 24.0332C27.0215 25.4746 27.6953 26.7344 28.4102 27.8125H28.5156C29.3008 26.7344 30.0098 25.4805 30.6426 24.0508C31.2871 22.6094 31.8379 21.1211 32.2949 19.5859C32.7637 18.0508 33.1211 16.5859 33.3672 15.1914C33.625 13.7852 33.7539 12.5723 33.7539 11.5527V11.6055C33.7539 11.2656 33.8125 11.0078 33.9297 10.832C34.4922 10.0586 35.2656 9.24414 36.25 8.38867C36.4375 8.24805 36.6016 8.17773 36.7422 8.17773C36.8711 8.17773 37.0234 8.24805 37.1992 8.38867C37.7266 8.83398 38.1777 9.26172 38.5527 9.67188C38.9277 10.0703 39.25 10.457 39.5195 10.832C39.6367 11.0195 39.6953 11.2715 39.6953 11.5879C39.6953 12.6543 39.543 13.8906 39.2383 15.2969C38.9453 16.6914 38.541 18.168 38.0254 19.7266C37.5098 21.2852 36.9238 22.8438 36.2676 24.4023C35.6113 25.9609 34.9199 27.4492 34.1934 28.8672C33.4668 30.2734 32.7402 31.5215 32.0137 32.6113C31.4043 33.5371 30.5723 34 29.5176 34H27.0918C26.0371 34 25.2168 33.5371 24.6309 32.6113ZM17.0547 11.5352V11.5527V11.6055V11.5352ZM39.6953 11.5527V11.6055V11.5879V11.5527ZM46.5508 34.4395C44.8281 34.4395 43.457 33.959 42.4375 32.998C41.4297 32.0254 40.9258 30.6895 40.9258 28.9902C40.9258 28.1113 41.084 27.2969 41.4004 26.5469C41.7285 25.7852 42.291 25.1172 43.0879 24.543C43.8965 23.957 45.0215 23.4883 46.4629 23.1367C47.916 22.7852 49.7676 22.5801 52.0176 22.5215C52.0176 21.4551 51.748 20.6875 51.209 20.2188C50.6816 19.75 49.8848 19.5156 48.8184 19.5156C47.8574 19.5156 47.0723 19.6797 46.4629 20.0078C45.8535 20.3359 45.4727 20.5586 45.3203 20.6758C45.1562 20.8164 44.957 20.8691 44.7227 20.834C44.4062 20.7871 44.0664 20.7051 43.7031 20.5879C43.3516 20.4707 42.9707 20.3359 42.5605 20.1836C42.502 20.1602 42.4375 20.125 42.3672 20.0781C42.2969 20.0195 42.2559 19.9375 42.2441 19.832C42.2441 19.7734 42.25 19.7031 42.2617 19.6211C42.2734 19.5273 42.3027 19.3633 42.3496 19.1289C42.3965 18.8945 42.4668 18.6074 42.5605 18.2676C42.6543 17.916 42.7422 17.6465 42.8242 17.459C42.9297 17.2598 43.1055 17.0723 43.3516 16.8965C43.5508 16.7324 44.1543 16.4688 45.1621 16.1055C46.1699 15.7422 47.6289 15.5605 49.5391 15.5605C54.8008 15.5605 57.4316 18.1211 57.4316 23.2422V33.1914C57.4316 33.4141 57.3672 33.6074 57.2383 33.7715C57.1211 33.9238 56.916 34 56.623 34H53.9863C53.7988 34 53.6289 33.9766 53.4766 33.9297C53.3359 33.8711 53.2012 33.7656 53.0723 33.6133L51.9824 32.207H51.8594C51.3203 32.9922 50.5938 33.5605 49.6797 33.9121C48.7773 34.2637 47.7344 34.4395 46.5508 34.4395ZM48.4844 30.3613C49.5625 30.3613 50.377 30.0859 50.9277 29.5352C51.4785 28.9844 51.8301 28.416 51.9824 27.8301V25.8789C50.3535 25.8789 49.1289 26.0078 48.3086 26.2656C47.5 26.5117 46.9609 26.8398 46.6914 27.25C46.4219 27.6484 46.2871 28.082 46.2871 28.5508C46.2871 29.2305 46.498 29.7051 46.9199 29.9746C47.3418 30.2324 47.8633 30.3613 48.4844 30.3613ZM79.4043 22.8027V33.0684C79.4043 33.4199 79.3281 33.666 79.1758 33.8066C79.0352 33.9355 78.7891 34 78.4375 34H74.8164C74.4648 34 74.2129 33.9355 74.0605 33.8066C73.9199 33.666 73.8496 33.4199 73.8496 33.0684V23.7168C73.8496 22.4395 73.5801 21.5078 73.041 20.9219C72.502 20.3359 71.7695 20.043 70.8438 20.043C69.918 20.043 69.2031 20.2422 68.6992 20.6406C68.207 21.0391 67.8262 21.543 67.5566 22.1523V33.0684C67.5566 33.4199 67.4805 33.666 67.3281 33.8066C67.1875 33.9355 66.9414 34 66.5898 34H62.9688C62.6172 34 62.3652 33.9355 62.2129 33.8066C62.0723 33.666 62.002 33.4199 62.002 33.0684V18.3379C62.002 18.0566 62.0605 17.8398 62.1777 17.6875C62.4238 17.3594 62.7168 17.0254 63.0566 16.6855C63.4082 16.3457 63.8359 15.9824 64.3398 15.5957C64.4922 15.4785 64.6387 15.4199 64.7793 15.4199C64.9082 15.4199 65.0547 15.4785 65.2188 15.5957C65.7109 15.9824 66.1328 16.3516 66.4844 16.7031C66.8359 17.0547 67.1465 17.418 67.416 17.793H67.5039C67.7031 17.5352 68.002 17.2363 68.4004 16.8965C68.7988 16.5449 69.3555 16.2344 70.0703 15.9648C70.7969 15.6953 71.7227 15.5605 72.8477 15.5605C73.9492 15.5605 74.998 15.7832 75.9941 16.2285C76.9902 16.6738 77.8047 17.4238 78.4375 18.4785C79.082 19.5332 79.4043 20.9746 79.4043 22.8027ZM84.8711 26.5117C84.5078 26.5117 84.3262 26.3301 84.3262 25.9668V22.8203C84.3262 22.457 84.5078 22.2754 84.8711 22.2754H93.3965C93.7598 22.2754 93.9414 22.457 93.9414 22.8203V25.9668C93.9414 26.3301 93.7598 26.5117 93.3965 26.5117H84.8711ZM113.594 23.9102C113.758 23.2773 113.934 22.6562 114.121 22.0469C114.32 21.4258 114.561 20.7344 114.842 19.9727C115.088 19.293 115.387 18.5137 115.738 17.6348C116.09 16.7441 116.459 15.8418 116.846 14.9277C117.244 14.0137 117.631 13.1641 118.006 12.3789C118.381 11.5937 118.721 10.9668 119.025 10.498C119.4 9.92383 119.805 9.49609 120.238 9.21484C120.684 8.93359 121.334 8.79297 122.189 8.79297H124.492C125.102 8.79297 125.611 8.88672 126.021 9.07422C126.443 9.25 126.742 9.67773 126.918 10.3574C127.047 10.8613 127.17 11.5996 127.287 12.5723C127.404 13.5449 127.504 14.8926 127.586 16.6152C127.668 18.3379 127.732 20.5527 127.779 23.2598C127.826 25.9551 127.85 29.2891 127.85 33.2617C127.85 33.4727 127.779 33.6484 127.639 33.7891C127.498 33.9297 127.328 34 127.129 34H123.121C122.922 34 122.752 33.9297 122.611 33.7891C122.471 33.6484 122.4 33.4668 122.4 33.2441C122.4 30.1504 122.4 27.5254 122.4 25.3691C122.4 23.2129 122.395 21.4258 122.383 20.0078C122.371 18.5898 122.354 17.4648 122.33 16.6328C122.318 15.7891 122.295 15.1387 122.26 14.6816H122.154C121.533 16.1113 120.871 17.7051 120.168 19.4629C119.465 21.209 118.779 23.0137 118.111 24.877C117.443 26.7285 116.846 28.5391 116.318 30.3086C116.166 30.8359 115.973 31.2051 115.738 31.416C115.516 31.6152 115 31.7148 114.191 31.7148H112.17C111.479 31.7148 111.016 31.627 110.781 31.4512C110.559 31.2754 110.365 30.8945 110.201 30.3086C109.814 28.9727 109.387 27.5605 108.918 26.0723C108.449 24.584 107.963 23.125 107.459 21.6953C106.967 20.2539 106.486 18.9297 106.018 17.7227C105.561 16.5039 105.15 15.4902 104.787 14.6816H104.682C104.588 16.0645 104.506 17.7461 104.436 19.7266C104.365 21.707 104.307 23.8574 104.26 26.1777C104.225 28.498 104.201 30.8652 104.189 33.2793C104.189 33.4902 104.119 33.666 103.979 33.8066C103.838 33.9355 103.668 34 103.469 34H99.8652C99.666 34 99.4961 33.9297 99.3555 33.7891C99.2148 33.6484 99.1445 33.4668 99.1445 33.2441C99.1562 26.998 99.2793 22.0117 99.5137 18.2852C99.7598 14.5586 100.023 12.0625 100.305 10.7969C100.492 9.96484 100.82 9.42578 101.289 9.17969C101.77 8.92187 102.314 8.79297 102.924 8.79297H105.771C106.416 8.79297 106.885 8.91016 107.178 9.14453C107.482 9.36719 107.852 9.80664 108.285 10.4629C108.543 10.8496 108.848 11.4297 109.199 12.2031C109.562 12.9766 109.938 13.8379 110.324 14.7871C110.711 15.7246 111.074 16.6562 111.414 17.582C111.766 18.4961 112.053 19.293 112.275 19.9727C112.51 20.6641 112.727 21.3379 112.926 21.9941C113.125 22.6387 113.301 23.2773 113.453 23.9102H113.594ZM137.008 34.4395C135.285 34.4395 133.914 33.959 132.895 32.998C131.887 32.0254 131.383 30.6895 131.383 28.9902C131.383 28.1113 131.541 27.2969 131.857 26.5469C132.186 25.7852 132.748 25.1172 133.545 24.543C134.354 23.957 135.479 23.4883 136.92 23.1367C138.373 22.7852 140.225 22.5801 142.475 22.5215C142.475 21.4551 142.205 20.6875 141.666 20.2188C141.139 19.75 140.342 19.5156 139.275 19.5156C138.314 19.5156 137.529 19.6797 136.92 20.0078C136.311 20.3359 135.93 20.5586 135.777 20.6758C135.613 20.8164 135.414 20.8691 135.18 20.834C134.863 20.7871 134.523 20.7051 134.16 20.5879C133.809 20.4707 133.428 20.3359 133.018 20.1836C132.959 20.1602 132.895 20.125 132.824 20.0781C132.754 20.0195 132.713 19.9375 132.701 19.832C132.701 19.7734 132.707 19.7031 132.719 19.6211C132.73 19.5273 132.76 19.3633 132.807 19.1289C132.854 18.8945 132.924 18.6074 133.018 18.2676C133.111 17.916 133.199 17.6465 133.281 17.459C133.387 17.2598 133.562 17.0723 133.809 16.8965C134.008 16.7324 134.611 16.4688 135.619 16.1055C136.627 15.7422 138.086 15.5605 139.996 15.5605C145.258 15.5605 147.889 18.1211 147.889 23.2422V33.1914C147.889 33.4141 147.824 33.6074 147.695 33.7715C147.578 33.9238 147.373 34 147.08 34H144.443C144.256 34 144.086 33.9766 143.934 33.9297C143.793 33.8711 143.658 33.7656 143.529 33.6133L142.439 32.207H142.316C141.777 32.9922 141.051 33.5605 140.137 33.9121C139.234 34.2637 138.191 34.4395 137.008 34.4395ZM138.941 30.3613C140.02 30.3613 140.834 30.0859 141.385 29.5352C141.936 28.9844 142.287 28.416 142.439 27.8301V25.8789C140.811 25.8789 139.586 26.0078 138.766 26.2656C137.957 26.5117 137.418 26.8398 137.148 27.25C136.879 27.6484 136.744 28.082 136.744 28.5508C136.744 29.2305 136.955 29.7051 137.377 29.9746C137.799 30.2324 138.32 30.3613 138.941 30.3613ZM169.861 22.8027V33.0684C169.861 33.4199 169.785 33.666 169.633 33.8066C169.492 33.9355 169.246 34 168.895 34H165.273C164.922 34 164.67 33.9355 164.518 33.8066C164.377 33.666 164.307 33.4199 164.307 33.0684V23.7168C164.307 22.4395 164.037 21.5078 163.498 20.9219C162.959 20.3359 162.227 20.043 161.301 20.043C160.375 20.043 159.66 20.2422 159.156 20.6406C158.664 21.0391 158.283 21.543 158.014 22.1523V33.0684C158.014 33.4199 157.938 33.666 157.785 33.8066C157.645 33.9355 157.398 34 157.047 34H153.426C153.074 34 152.822 33.9355 152.67 33.8066C152.529 33.666 152.459 33.4199 152.459 33.0684V18.3379C152.459 18.0566 152.518 17.8398 152.635 17.6875C152.881 17.3594 153.174 17.0254 153.514 16.6855C153.865 16.3457 154.293 15.9824 154.797 15.5957C154.949 15.4785 155.096 15.4199 155.236 15.4199C155.365 15.4199 155.512 15.4785 155.676 15.5957C156.168 15.9824 156.59 16.3516 156.941 16.7031C157.293 17.0547 157.604 17.418 157.873 17.793H157.961C158.16 17.5352 158.459 17.2363 158.857 16.8965C159.256 16.5449 159.812 16.2344 160.527 15.9648C161.254 15.6953 162.18 15.5605 163.305 15.5605C164.406 15.5605 165.455 15.7832 166.451 16.2285C167.447 16.6738 168.262 17.4238 168.895 18.4785C169.539 19.5332 169.861 20.9746 169.861 22.8027Z" fill="white"/>
<path d="M184.227 24.3864V25.6364H179.136V24.3864H184.227ZM191.95 33.2727C191.723 33.2727 191.52 33.2538 191.342 33.2159C191.164 33.1818 191.041 33.1477 190.973 33.1136L191.314 31.9318C191.64 32.0152 191.928 32.0455 192.178 32.0227C192.428 32 192.649 31.8883 192.842 31.6875C193.039 31.4905 193.219 31.1705 193.382 30.7273L193.632 30.0455L190.405 21.2727H191.859L194.268 28.2273H194.359L196.768 21.2727H198.223L194.518 31.2727C194.352 31.7235 194.145 32.0966 193.899 32.392C193.653 32.6913 193.367 32.9129 193.041 33.0568C192.719 33.2008 192.356 33.2727 191.95 33.2727ZM203.226 30.1818C202.438 30.1818 201.747 29.9943 201.152 29.6193C200.561 29.2443 200.099 28.7197 199.766 28.0455C199.436 27.3712 199.271 26.5833 199.271 25.6818C199.271 24.7727 199.436 23.9792 199.766 23.3011C200.099 22.6231 200.561 22.0966 201.152 21.7216C201.747 21.3466 202.438 21.1591 203.226 21.1591C204.014 21.1591 204.703 21.3466 205.294 21.7216C205.889 22.0966 206.351 22.6231 206.68 23.3011C207.014 23.9792 207.18 24.7727 207.18 25.6818C207.18 26.5833 207.014 27.3712 206.68 28.0455C206.351 28.7197 205.889 29.2443 205.294 29.6193C204.703 29.9943 204.014 30.1818 203.226 30.1818ZM203.226 28.9773C203.824 28.9773 204.317 28.8239 204.703 28.517C205.089 28.2102 205.375 27.8068 205.561 27.3068C205.747 26.8068 205.839 26.2652 205.839 25.6818C205.839 25.0985 205.747 24.5549 205.561 24.0511C205.375 23.5473 205.089 23.1402 204.703 22.8295C204.317 22.5189 203.824 22.3636 203.226 22.3636C202.627 22.3636 202.135 22.5189 201.749 22.8295C201.362 23.1402 201.076 23.5473 200.891 24.0511C200.705 24.5549 200.612 25.0985 200.612 25.6818C200.612 26.2652 200.705 26.8068 200.891 27.3068C201.076 27.8068 201.362 28.2102 201.749 28.517C202.135 28.8239 202.627 28.9773 203.226 28.9773ZM214.727 26.4318V21.2727H216.068V30H214.727V28.5227H214.636C214.432 28.9659 214.114 29.3428 213.682 29.6534C213.25 29.9602 212.705 30.1136 212.045 30.1136C211.5 30.1136 211.015 29.9943 210.591 29.7557C210.167 29.5133 209.833 29.1496 209.591 28.6648C209.348 28.1761 209.227 27.5606 209.227 26.8182V21.2727H210.568V26.7273C210.568 27.3636 210.746 27.8712 211.102 28.25C211.462 28.6288 211.92 28.8182 212.477 28.8182C212.811 28.8182 213.15 28.733 213.494 28.5625C213.843 28.392 214.134 28.1307 214.369 27.7784C214.608 27.4261 214.727 26.9773 214.727 26.4318ZM219.865 24.75V30H218.524V21.2727H219.82V22.6364H219.933C220.138 22.1932 220.448 21.8371 220.865 21.5682C221.282 21.2955 221.82 21.1591 222.479 21.1591C223.07 21.1591 223.587 21.2803 224.03 21.5227C224.473 21.7614 224.818 22.125 225.064 22.6136C225.31 23.0985 225.433 23.7121 225.433 24.4545V30H224.092V24.5455C224.092 23.8598 223.914 23.3258 223.558 22.9432C223.202 22.5568 222.714 22.3636 222.092 22.3636C221.664 22.3636 221.282 22.4564 220.945 22.642C220.611 22.8277 220.348 23.0985 220.155 23.4545C219.962 23.8106 219.865 24.2424 219.865 24.75ZM231.406 33.4545C230.759 33.4545 230.202 33.3712 229.736 33.2045C229.27 33.0417 228.882 32.8258 228.571 32.5568C228.264 32.2917 228.02 32.0076 227.838 31.7045L228.906 30.9545C229.027 31.1136 229.181 31.2955 229.366 31.5C229.552 31.7083 229.806 31.8883 230.128 32.0398C230.454 32.1951 230.88 32.2727 231.406 32.2727C232.111 32.2727 232.692 32.1023 233.151 31.7614C233.609 31.4205 233.838 30.8864 233.838 30.1591V28.3864H233.724C233.626 28.5455 233.486 28.7424 233.304 28.9773C233.126 29.2083 232.868 29.4148 232.531 29.5966C232.198 29.7746 231.747 29.8636 231.179 29.8636C230.474 29.8636 229.842 29.697 229.281 29.3636C228.724 29.0303 228.283 28.5455 227.957 27.9091C227.635 27.2727 227.474 26.5 227.474 25.5909C227.474 24.697 227.632 23.9186 227.946 23.2557C228.26 22.589 228.698 22.0739 229.259 21.7102C229.819 21.3428 230.467 21.1591 231.202 21.1591C231.77 21.1591 232.221 21.2538 232.554 21.4432C232.891 21.6288 233.149 21.8409 233.327 22.0795C233.509 22.3144 233.649 22.5076 233.747 22.6591H233.884V21.2727H235.179V30.25C235.179 31 235.009 31.6098 234.668 32.0795C234.33 32.553 233.876 32.8996 233.304 33.1193C232.736 33.3428 232.103 33.4545 231.406 33.4545ZM231.361 28.6591C231.899 28.6591 232.353 28.536 232.724 28.2898C233.096 28.0436 233.378 27.6894 233.571 27.2273C233.764 26.7652 233.861 26.2121 233.861 25.5682C233.861 24.9394 233.766 24.3845 233.577 23.9034C233.387 23.4223 233.107 23.0455 232.736 22.7727C232.365 22.5 231.906 22.3636 231.361 22.3636C230.793 22.3636 230.319 22.5076 229.94 22.7955C229.565 23.0833 229.283 23.4697 229.094 23.9545C228.908 24.4394 228.815 24.9773 228.815 25.5682C228.815 26.1742 228.91 26.7102 229.099 27.1761C229.293 27.6383 229.577 28.0019 229.952 28.267C230.33 28.5284 230.8 28.6591 231.361 28.6591ZM243.474 24.75V30H242.134V21.2727H243.429V22.6364H243.543C243.747 22.1932 244.058 21.8371 244.474 21.5682C244.891 21.2955 245.429 21.1591 246.088 21.1591C246.679 21.1591 247.196 21.2803 247.639 21.5227C248.082 21.7614 248.427 22.125 248.673 22.6136C248.92 23.0985 249.043 23.7121 249.043 24.4545V30H247.702V24.5455C247.702 23.8598 247.524 23.3258 247.168 22.9432C246.812 22.5568 246.323 22.3636 245.702 22.3636C245.274 22.3636 244.891 22.4564 244.554 22.642C244.221 22.8277 243.957 23.0985 243.764 23.4545C243.571 23.8106 243.474 24.2424 243.474 24.75ZM252.675 18.3636V19.3864C252.675 19.697 252.618 20.0284 252.504 20.3807C252.394 20.7292 252.232 21.0682 252.016 21.3977C251.804 21.7235 251.546 22.0076 251.243 22.25L250.516 21.6591C250.754 21.3182 250.961 20.964 251.135 20.5966C251.313 20.2254 251.402 19.8295 251.402 19.4091V18.3636H252.675ZM262.832 21.2727V22.4091H258.128V21.2727H262.832ZM259.537 30V20.0682C259.537 19.5682 259.654 19.1515 259.889 18.8182C260.124 18.4848 260.429 18.2348 260.804 18.0682C261.179 17.9015 261.575 17.8182 261.991 17.8182C262.321 17.8182 262.59 17.8447 262.798 17.8977C263.007 17.9508 263.162 18 263.264 18.0455L262.878 19.2045C262.81 19.1818 262.715 19.1534 262.594 19.1193C262.476 19.0852 262.321 19.0682 262.128 19.0682C261.685 19.0682 261.365 19.1799 261.168 19.4034C260.974 19.6269 260.878 19.9545 260.878 20.3864V30H259.537ZM267.03 30.2045C266.477 30.2045 265.975 30.1004 265.524 29.892C265.073 29.6799 264.715 29.375 264.45 28.9773C264.185 28.5758 264.053 28.0909 264.053 27.5227C264.053 27.0227 264.151 26.6174 264.348 26.3068C264.545 25.9924 264.808 25.7462 265.138 25.5682C265.467 25.3902 265.831 25.2576 266.229 25.1705C266.63 25.0795 267.034 25.0076 267.439 24.9545C267.969 24.8864 268.399 24.8352 268.729 24.8011C269.062 24.7633 269.304 24.7008 269.456 24.6136C269.611 24.5265 269.689 24.375 269.689 24.1591V24.1136C269.689 23.553 269.536 23.1174 269.229 22.8068C268.926 22.4962 268.465 22.3409 267.848 22.3409C267.208 22.3409 266.706 22.4811 266.342 22.7614C265.979 23.0417 265.723 23.3409 265.575 23.6591L264.303 23.2045C264.53 22.6742 264.833 22.2614 265.212 21.9659C265.594 21.6667 266.011 21.4583 266.462 21.3409C266.916 21.2197 267.363 21.1591 267.803 21.1591C268.083 21.1591 268.405 21.1932 268.768 21.2614C269.136 21.3258 269.49 21.4602 269.831 21.6648C270.176 21.8693 270.462 22.178 270.689 22.5909C270.916 23.0038 271.03 23.5568 271.03 24.25V30H269.689V28.8182H269.621C269.53 29.0076 269.378 29.2102 269.166 29.4261C268.954 29.642 268.672 29.8258 268.32 29.9773C267.967 30.1288 267.537 30.2045 267.03 30.2045ZM267.234 29C267.765 29 268.212 28.8958 268.575 28.6875C268.943 28.4792 269.219 28.2102 269.405 27.8807C269.594 27.5511 269.689 27.2045 269.689 26.8409V25.6136C269.632 25.6818 269.507 25.7443 269.314 25.8011C269.125 25.8542 268.905 25.9015 268.655 25.9432C268.409 25.9811 268.168 26.0152 267.933 26.0455C267.702 26.072 267.515 26.0947 267.371 26.1136C267.022 26.1591 266.696 26.233 266.393 26.3352C266.094 26.4337 265.852 26.5833 265.666 26.7841C265.484 26.9811 265.393 27.25 265.393 27.5909C265.393 28.0568 265.566 28.4091 265.911 28.6477C266.259 28.8826 266.7 29 267.234 29ZM279.659 23.2273L278.455 23.5682C278.379 23.3674 278.267 23.1723 278.119 22.983C277.975 22.7898 277.778 22.6307 277.528 22.5057C277.278 22.3807 276.958 22.3182 276.568 22.3182C276.034 22.3182 275.589 22.4413 275.233 22.6875C274.881 22.9299 274.705 23.2386 274.705 23.6136C274.705 23.947 274.826 24.2102 275.068 24.4034C275.311 24.5966 275.689 24.7576 276.205 24.8864L277.5 25.2045C278.28 25.3939 278.862 25.6837 279.244 26.0739C279.627 26.4602 279.818 26.9583 279.818 27.5682C279.818 28.0682 279.674 28.5152 279.386 28.9091C279.102 29.303 278.705 29.6136 278.193 29.8409C277.682 30.0682 277.087 30.1818 276.409 30.1818C275.519 30.1818 274.782 29.9886 274.199 29.6023C273.616 29.2159 273.246 28.6515 273.091 27.9091L274.364 27.5909C274.485 28.0606 274.714 28.4129 275.051 28.6477C275.392 28.8826 275.837 29 276.386 29C277.011 29 277.508 28.8674 277.875 28.6023C278.246 28.3333 278.432 28.0114 278.432 27.6364C278.432 27.3333 278.326 27.0795 278.114 26.875C277.902 26.6667 277.576 26.5114 277.136 26.4091L275.682 26.0682C274.883 25.8788 274.295 25.5852 273.92 25.1875C273.549 24.786 273.364 24.2841 273.364 23.6818C273.364 23.1894 273.502 22.7538 273.778 22.375C274.059 21.9962 274.439 21.6989 274.92 21.483C275.405 21.267 275.955 21.1591 276.568 21.1591C277.432 21.1591 278.11 21.3485 278.602 21.7273C279.098 22.1061 279.451 22.6061 279.659 23.2273ZM285.632 21.2727V22.4091H281.109V21.2727H285.632ZM282.428 19.1818H283.768V27.5C283.768 27.8788 283.823 28.1629 283.933 28.3523C284.047 28.5379 284.191 28.6629 284.365 28.7273C284.543 28.7879 284.731 28.8182 284.928 28.8182C285.075 28.8182 285.196 28.8106 285.291 28.7955C285.386 28.7765 285.462 28.7614 285.518 28.75L285.791 29.9545C285.7 29.9886 285.573 30.0227 285.411 30.0568C285.248 30.0947 285.041 30.1136 284.791 30.1136C284.412 30.1136 284.041 30.0322 283.678 29.8693C283.318 29.7064 283.018 29.4583 282.78 29.125C282.545 28.7917 282.428 28.3712 282.428 27.8636V19.1818Z" fill="white"/>
</g>
<defs>
<clipPath id="clip0_6_3">
<rect width="303" height="46" fill="white"/>
</clipPath>
</defs>
</svg>
